%TF.GenerationSoftware,KiCad,Pcbnew,7.0.1-0*%
%TF.CreationDate,2023-04-12T18:06:32-07:00*%
%TF.ProjectId,GlowArtPCBv3,476c6f77-4172-4745-9043-4276332e6b69,rev?*%
%TF.SameCoordinates,Original*%
%TF.FileFunction,Copper,L2,Bot*%
%TF.FilePolarity,Positive*%
%FSLAX46Y46*%
G04 Gerber Fmt 4.6, Leading zero omitted, Abs format (unit mm)*
G04 Created by KiCad (PCBNEW 7.0.1-0) date 2023-04-12 18:06:32*
%MOMM*%
%LPD*%
G01*
G04 APERTURE LIST*
G04 Aperture macros list*
%AMRotRect*
0 Rectangle, with rotation*
0 The origin of the aperture is its center*
0 $1 length*
0 $2 width*
0 $3 Rotation angle, in degrees counterclockwise*
0 Add horizontal line*
21,1,$1,$2,0,0,$3*%
G04 Aperture macros list end*
%TA.AperFunction,ComponentPad*%
%ADD10R,1.800000X1.800000*%
%TD*%
%TA.AperFunction,ComponentPad*%
%ADD11C,1.800000*%
%TD*%
%TA.AperFunction,ComponentPad*%
%ADD12RotRect,2.000000X2.000000X237.500000*%
%TD*%
%TA.AperFunction,ComponentPad*%
%ADD13C,2.000000*%
%TD*%
%TA.AperFunction,ComponentPad*%
%ADD14RotRect,2.000000X2.000000X120.000000*%
%TD*%
%TA.AperFunction,ComponentPad*%
%ADD15RotRect,1.800000X1.800000X215.000000*%
%TD*%
%TA.AperFunction,ComponentPad*%
%ADD16C,1.400000*%
%TD*%
%TA.AperFunction,ComponentPad*%
%ADD17R,1.400000X1.400000*%
%TD*%
%TA.AperFunction,ComponentPad*%
%ADD18RotRect,1.800000X1.800000X140.000000*%
%TD*%
%TA.AperFunction,Conductor*%
%ADD19C,0.250000*%
%TD*%
G04 APERTURE END LIST*
D10*
%TO.P,D2,1,K*%
%TO.N,Net-(BT1-Pad2)*%
X87757000Y-85471000D03*
D11*
%TO.P,D2,2,A*%
%TO.N,Net-(D1-Pad2)*%
X90297000Y-85471000D03*
%TD*%
D12*
%TO.P,BT1,1,+*%
%TO.N,Net-(BT1-Pad1)*%
X82466781Y-37707371D03*
D13*
%TO.P,BT1,2,-*%
%TO.N,Net-(BT1-Pad2)*%
X58449489Y-75406969D03*
%TD*%
D14*
%TO.P,BT2,1,+*%
%TO.N,Net-(BT2-Pad1)*%
X121005000Y-76462367D03*
D13*
%TO.P,BT2,2,-*%
%TO.N,Net-(BT1-Pad1)*%
X98655000Y-37751031D03*
%TD*%
D15*
%TO.P,flat side,1,K*%
%TO.N,Net-(BT1-Pad2)*%
X94488000Y-55947116D03*
D11*
%TO.P,flat side,2,A*%
%TO.N,Net-(D1-Pad2)*%
X92407354Y-57404000D03*
%TD*%
D16*
%TO.P,SW1,3,C*%
%TO.N,Net-(D1-Pad2)*%
X87470000Y-102870000D03*
%TO.P,SW1,2,B*%
%TO.N,Net-(BT2-Pad1)*%
X89970000Y-102870000D03*
D17*
%TO.P,SW1,1,A*%
%TO.N,unconnected-(SW1-Pad1)*%
X92470000Y-102870000D03*
%TD*%
D18*
%TO.P,flat side,1,K*%
%TO.N,Net-(BT1-Pad2)*%
X87376000Y-56642000D03*
D11*
%TO.P,flat side,2,A*%
%TO.N,Net-(D1-Pad2)*%
X85430247Y-55009319D03*
%TD*%
D19*
%TO.N,Net-(BT2-Pad1)*%
X121005000Y-76462367D02*
X122320000Y-78300000D01*
X122320000Y-78300000D02*
X122410000Y-81410000D01*
X122410000Y-81410000D02*
X120300000Y-83520000D01*
X120300000Y-83520000D02*
X116890000Y-83520000D01*
X116890000Y-83520000D02*
X115750000Y-82380000D01*
X115380000Y-82750000D02*
X115380000Y-89200000D01*
X115380000Y-89200000D02*
X104504000Y-100076000D01*
X104504000Y-100076000D02*
X92764000Y-100076000D01*
X115750000Y-82380000D02*
X115380000Y-82750000D01*
X92764000Y-100076000D02*
X89970000Y-102870000D01*
%TO.N,Net-(D1-Pad2)*%
X90297000Y-85471000D02*
X90297000Y-100043000D01*
X90297000Y-100043000D02*
X87470000Y-102870000D01*
X86591566Y-53848000D02*
X85430247Y-55009319D01*
X96266000Y-56515000D02*
X96266000Y-54864000D01*
X90297000Y-59514354D02*
X90297000Y-85471000D01*
X95250000Y-53848000D02*
X86591566Y-53848000D01*
X92661354Y-57658000D02*
X95123000Y-57658000D01*
X95123000Y-57658000D02*
X96266000Y-56515000D01*
X96266000Y-54864000D02*
X95250000Y-53848000D01*
X92407354Y-57404000D02*
X90297000Y-59514354D01*
X92407354Y-57404000D02*
X92661354Y-57658000D01*
%TO.N,Net-(BT1-Pad2)*%
X58449489Y-75770511D02*
X55810000Y-78580000D01*
X76454000Y-86106000D02*
X77978000Y-84582000D01*
X88070884Y-55947116D02*
X94488000Y-55947116D01*
X87376000Y-56642000D02*
X88070884Y-55947116D01*
X58449489Y-75406969D02*
X58449489Y-75770511D01*
X89154000Y-84074000D02*
X89154000Y-58420000D01*
X77978000Y-84582000D02*
X79502000Y-84582000D01*
X89154000Y-58420000D02*
X87376000Y-56642000D01*
X56610000Y-84170000D02*
X58546000Y-86106000D01*
X55630000Y-81880000D02*
X56000000Y-82950000D01*
X55810000Y-78580000D02*
X55460000Y-81320000D01*
X81026000Y-86106000D02*
X87122000Y-86106000D01*
X79502000Y-84582000D02*
X81026000Y-86106000D01*
X87122000Y-86106000D02*
X87757000Y-85471000D01*
X58546000Y-86106000D02*
X76454000Y-86106000D01*
X56000000Y-82950000D02*
X56610000Y-84170000D01*
X55460000Y-81320000D02*
X55630000Y-81880000D01*
X87757000Y-85471000D02*
X89154000Y-84074000D01*
%TO.N,Net-(BT1-Pad1)*%
X95221031Y-37751031D02*
X93050000Y-35580000D01*
X93050000Y-35580000D02*
X84590000Y-35580000D01*
X84190000Y-35980000D02*
X84190000Y-35984152D01*
X84590000Y-35580000D02*
X84190000Y-35980000D01*
X98655000Y-37751031D02*
X95221031Y-37751031D01*
X84190000Y-35984152D02*
X82466781Y-37707371D01*
%TD*%
M02*
