%TF.GenerationSoftware,KiCad,Pcbnew,7.0.2-0*%
%TF.CreationDate,2023-07-13T00:13:30-07:00*%
%TF.ProjectId,GlowArtPCBv3,476c6f77-4172-4745-9043-4276332e6b69,rev?*%
%TF.SameCoordinates,Original*%
%TF.FileFunction,AssemblyDrawing,Bot*%
%FSLAX46Y46*%
G04 Gerber Fmt 4.6, Leading zero omitted, Abs format (unit mm)*
G04 Created by KiCad (PCBNEW 7.0.2-0) date 2023-07-13 00:13:30*
%MOMM*%
%LPD*%
G01*
G04 APERTURE LIST*
%ADD10C,0.150000*%
%ADD11C,0.100000*%
G04 APERTURE END LIST*
D10*
%TO.C,BT1*%
X72982967Y-52923224D02*
X72727110Y-53324839D01*
X73275107Y-52996415D02*
X72252616Y-52740246D01*
X72252616Y-52740246D02*
X72916908Y-53558676D01*
X72522425Y-53646131D02*
X72266568Y-54047746D01*
X72814565Y-53719323D02*
X71792074Y-53463153D01*
X71792074Y-53463153D02*
X72456365Y-54281584D01*
X72061882Y-54369038D02*
X71806025Y-54770653D01*
X72354022Y-54442230D02*
X71331531Y-54186060D01*
X71331531Y-54186060D02*
X71995823Y-55004491D01*
X71407351Y-55928205D02*
X70563960Y-55390906D01*
X70885252Y-55595591D02*
X70793919Y-55650329D01*
X70793919Y-55650329D02*
X70691576Y-55810975D01*
X70691576Y-55810975D02*
X70680566Y-55916883D01*
X70680566Y-55916883D02*
X70695142Y-55982630D01*
X70695142Y-55982630D02*
X70749879Y-56073963D01*
X70749879Y-56073963D02*
X70990848Y-56227478D01*
X70990848Y-56227478D02*
X71096757Y-56238487D01*
X71096757Y-56238487D02*
X71162504Y-56223912D01*
X71162504Y-56223912D02*
X71253837Y-56169174D01*
X71253837Y-56169174D02*
X71356180Y-56008528D01*
X71356180Y-56008528D02*
X71367190Y-55902620D01*
X70690952Y-57052727D02*
X70249175Y-56771285D01*
X70249175Y-56771285D02*
X70194438Y-56679952D01*
X70194438Y-56679952D02*
X70205448Y-56574043D01*
X70205448Y-56574043D02*
X70307791Y-56413397D01*
X70307791Y-56413397D02*
X70399124Y-56358660D01*
X70650790Y-57027142D02*
X70742123Y-56972404D01*
X70742123Y-56972404D02*
X70870052Y-56771597D01*
X70870052Y-56771597D02*
X70881062Y-56665688D01*
X70881062Y-56665688D02*
X70826324Y-56574355D01*
X70826324Y-56574355D02*
X70746001Y-56523184D01*
X70746001Y-56523184D02*
X70640093Y-56512174D01*
X70640093Y-56512174D02*
X70548760Y-56566911D01*
X70548760Y-56566911D02*
X70420831Y-56767719D01*
X70420831Y-56767719D02*
X70329498Y-56822456D01*
X69949591Y-56975658D02*
X69744905Y-57296950D01*
X69591703Y-56917043D02*
X70314610Y-57377585D01*
X70314610Y-57377585D02*
X70369348Y-57468918D01*
X70369348Y-57468918D02*
X70358338Y-57574827D01*
X70358338Y-57574827D02*
X70307166Y-57655150D01*
X69642562Y-57457597D02*
X69437877Y-57778888D01*
X69284675Y-57398981D02*
X70007582Y-57859524D01*
X70007582Y-57859524D02*
X70062319Y-57950857D01*
X70062319Y-57950857D02*
X70051309Y-58056765D01*
X70051309Y-58056765D02*
X70000138Y-58137088D01*
X69576191Y-58713925D02*
X69667523Y-58659188D01*
X69667523Y-58659188D02*
X69769866Y-58498542D01*
X69769866Y-58498542D02*
X69780876Y-58392633D01*
X69780876Y-58392633D02*
X69726139Y-58301300D01*
X69726139Y-58301300D02*
X69404847Y-58096615D01*
X69404847Y-58096615D02*
X69298938Y-58085605D01*
X69298938Y-58085605D02*
X69207605Y-58140342D01*
X69207605Y-58140342D02*
X69105263Y-58300988D01*
X69105263Y-58300988D02*
X69094253Y-58406897D01*
X69094253Y-58406897D02*
X69148990Y-58498230D01*
X69148990Y-58498230D02*
X69229313Y-58549401D01*
X69229313Y-58549401D02*
X69565493Y-58198958D01*
X69360495Y-59141126D02*
X68798234Y-58782926D01*
X68958880Y-58885269D02*
X68852971Y-58874259D01*
X68852971Y-58874259D02*
X68787224Y-58888835D01*
X68787224Y-58888835D02*
X68695891Y-58943572D01*
X68695891Y-58943572D02*
X68644720Y-59023895D01*
X68516791Y-59224703D02*
X68951124Y-59783710D01*
X68260934Y-59626318D02*
X68951124Y-59783710D01*
X68951124Y-59783710D02*
X69203103Y-59831316D01*
X69203103Y-59831316D02*
X69268850Y-59816740D01*
X69268850Y-59816740D02*
X69360183Y-59762003D01*
X82837337Y-37011828D02*
X82800741Y-37157898D01*
X82800741Y-37157898D02*
X82815317Y-37223645D01*
X82815317Y-37223645D02*
X82870055Y-37314978D01*
X82870055Y-37314978D02*
X82990539Y-37391735D01*
X82990539Y-37391735D02*
X83096448Y-37402745D01*
X83096448Y-37402745D02*
X83162195Y-37388170D01*
X83162195Y-37388170D02*
X83253528Y-37333432D01*
X83253528Y-37333432D02*
X83458213Y-37012140D01*
X83458213Y-37012140D02*
X82614822Y-36474841D01*
X82614822Y-36474841D02*
X82435722Y-36755971D01*
X82435722Y-36755971D02*
X82424712Y-36861880D01*
X82424712Y-36861880D02*
X82439288Y-36927627D01*
X82439288Y-36927627D02*
X82494025Y-37018960D01*
X82494025Y-37018960D02*
X82574348Y-37070131D01*
X82574348Y-37070131D02*
X82680257Y-37081141D01*
X82680257Y-37081141D02*
X82746004Y-37066565D01*
X82746004Y-37066565D02*
X82837337Y-37011828D01*
X82837337Y-37011828D02*
X83016437Y-36730698D01*
X82154279Y-37197748D02*
X81847251Y-37679686D01*
X82844157Y-37976016D02*
X82000765Y-37438717D01*
X82230100Y-38939892D02*
X82537128Y-38457954D01*
X82383614Y-38698923D02*
X81540223Y-38161624D01*
X81540223Y-38161624D02*
X81711878Y-38158058D01*
X81711878Y-38158058D02*
X81843373Y-38128906D01*
X81843373Y-38128906D02*
X81934706Y-38074169D01*
%TO.C,BT2*%
X111887510Y-61024222D02*
X111649415Y-60611828D01*
X111687694Y-61249557D02*
X112387052Y-60460882D01*
X112387052Y-60460882D02*
X111354360Y-60672207D01*
X111458939Y-60281914D02*
X111220844Y-59869521D01*
X111259122Y-60507250D02*
X111958481Y-59718575D01*
X111958481Y-59718575D02*
X110925789Y-59929899D01*
X111030367Y-59539606D02*
X110792272Y-59127213D01*
X110830551Y-59764942D02*
X111529909Y-58976267D01*
X111529909Y-58976267D02*
X110497217Y-59187592D01*
X109949598Y-58239087D02*
X110815623Y-57739087D01*
X110485709Y-57929564D02*
X110479329Y-57823275D01*
X110479329Y-57823275D02*
X110384091Y-57658318D01*
X110384091Y-57658318D02*
X110295233Y-57599649D01*
X110295233Y-57599649D02*
X110230184Y-57582219D01*
X110230184Y-57582219D02*
X110123896Y-57588599D01*
X110123896Y-57588599D02*
X109876460Y-57731456D01*
X109876460Y-57731456D02*
X109817791Y-57820315D01*
X109817791Y-57820315D02*
X109800361Y-57885363D01*
X109800361Y-57885363D02*
X109806741Y-57991652D01*
X109806741Y-57991652D02*
X109901979Y-58156609D01*
X109901979Y-58156609D02*
X109990837Y-58215278D01*
X109282931Y-57084387D02*
X109736564Y-56822482D01*
X109736564Y-56822482D02*
X109842852Y-56816102D01*
X109842852Y-56816102D02*
X109931710Y-56874771D01*
X109931710Y-56874771D02*
X110026948Y-57039729D01*
X110026948Y-57039729D02*
X110033328Y-57146017D01*
X109324171Y-57060577D02*
X109330550Y-57166865D01*
X109330550Y-57166865D02*
X109449598Y-57373062D01*
X109449598Y-57373062D02*
X109538456Y-57431731D01*
X109538456Y-57431731D02*
X109644744Y-57425351D01*
X109644744Y-57425351D02*
X109727223Y-57377732D01*
X109727223Y-57377732D02*
X109785892Y-57288874D01*
X109785892Y-57288874D02*
X109779512Y-57182586D01*
X109779512Y-57182586D02*
X109660465Y-56976389D01*
X109660465Y-56976389D02*
X109654085Y-56870101D01*
X109693615Y-56462378D02*
X109503139Y-56132464D01*
X109910861Y-56171994D02*
X109168554Y-56600565D01*
X109168554Y-56600565D02*
X109062266Y-56606945D01*
X109062266Y-56606945D02*
X108973407Y-56548276D01*
X108973407Y-56548276D02*
X108925788Y-56465797D01*
X109407900Y-55967506D02*
X109217424Y-55637592D01*
X109625147Y-55677122D02*
X108882839Y-56105693D01*
X108882839Y-56105693D02*
X108776551Y-56112073D01*
X108776551Y-56112073D02*
X108687693Y-56053404D01*
X108687693Y-56053404D02*
X108640074Y-55970925D01*
X108324170Y-55328526D02*
X108330550Y-55434814D01*
X108330550Y-55434814D02*
X108425788Y-55599771D01*
X108425788Y-55599771D02*
X108514646Y-55658440D01*
X108514646Y-55658440D02*
X108620934Y-55652060D01*
X108620934Y-55652060D02*
X108950849Y-55461584D01*
X108950849Y-55461584D02*
X109009518Y-55372726D01*
X109009518Y-55372726D02*
X109003138Y-55266438D01*
X109003138Y-55266438D02*
X108907900Y-55101480D01*
X108907900Y-55101480D02*
X108819042Y-55042811D01*
X108819042Y-55042811D02*
X108712754Y-55049191D01*
X108712754Y-55049191D02*
X108630275Y-55096810D01*
X108630275Y-55096810D02*
X108785892Y-55556822D01*
X108044836Y-54939942D02*
X108622186Y-54606609D01*
X108457229Y-54701847D02*
X108515898Y-54612988D01*
X108515898Y-54612988D02*
X108533327Y-54547940D01*
X108533327Y-54547940D02*
X108526948Y-54441651D01*
X108526948Y-54441651D02*
X108479329Y-54359173D01*
X108360281Y-54152976D02*
X107663883Y-54280113D01*
X108122186Y-53740583D02*
X107663883Y-54280113D01*
X107663883Y-54280113D02*
X107505305Y-54481639D01*
X107505305Y-54481639D02*
X107487876Y-54546688D01*
X107487876Y-54546688D02*
X107494255Y-54652976D01*
X121450849Y-77112220D02*
X121338181Y-77012312D01*
X121338181Y-77012312D02*
X121273133Y-76994882D01*
X121273133Y-76994882D02*
X121166844Y-77001261D01*
X121166844Y-77001261D02*
X121043126Y-77072690D01*
X121043126Y-77072690D02*
X120984457Y-77161548D01*
X120984457Y-77161548D02*
X120967028Y-77226597D01*
X120967028Y-77226597D02*
X120973407Y-77332885D01*
X120973407Y-77332885D02*
X121163884Y-77662800D01*
X121163884Y-77662800D02*
X122029909Y-77162800D01*
X122029909Y-77162800D02*
X121863242Y-76874125D01*
X121863242Y-76874125D02*
X121774384Y-76815456D01*
X121774384Y-76815456D02*
X121709335Y-76798026D01*
X121709335Y-76798026D02*
X121603047Y-76804406D01*
X121603047Y-76804406D02*
X121520568Y-76852025D01*
X121520568Y-76852025D02*
X121461899Y-76940883D01*
X121461899Y-76940883D02*
X121444469Y-77005932D01*
X121444469Y-77005932D02*
X121450849Y-77112220D01*
X121450849Y-77112220D02*
X121617516Y-77400895D01*
X121601338Y-76420492D02*
X121315623Y-75925621D01*
X120592455Y-76673056D02*
X121458480Y-76173056D01*
X121090287Y-75725804D02*
X121107717Y-75660755D01*
X121107717Y-75660755D02*
X121101337Y-75554467D01*
X121101337Y-75554467D02*
X120982290Y-75348270D01*
X120982290Y-75348270D02*
X120893431Y-75289601D01*
X120893431Y-75289601D02*
X120828383Y-75272171D01*
X120828383Y-75272171D02*
X120722094Y-75278551D01*
X120722094Y-75278551D02*
X120639616Y-75326170D01*
X120639616Y-75326170D02*
X120539707Y-75438838D01*
X120539707Y-75438838D02*
X120330550Y-76219424D01*
X120330550Y-76219424D02*
X120021026Y-75683313D01*
%TO.C,SW1*%
X91979999Y-105472500D02*
X91765714Y-105543928D01*
X91765714Y-105543928D02*
X91408571Y-105543928D01*
X91408571Y-105543928D02*
X91265714Y-105472500D01*
X91265714Y-105472500D02*
X91194285Y-105401071D01*
X91194285Y-105401071D02*
X91122856Y-105258214D01*
X91122856Y-105258214D02*
X91122856Y-105115357D01*
X91122856Y-105115357D02*
X91194285Y-104972500D01*
X91194285Y-104972500D02*
X91265714Y-104901071D01*
X91265714Y-104901071D02*
X91408571Y-104829642D01*
X91408571Y-104829642D02*
X91694285Y-104758214D01*
X91694285Y-104758214D02*
X91837142Y-104686785D01*
X91837142Y-104686785D02*
X91908571Y-104615357D01*
X91908571Y-104615357D02*
X91979999Y-104472500D01*
X91979999Y-104472500D02*
X91979999Y-104329642D01*
X91979999Y-104329642D02*
X91908571Y-104186785D01*
X91908571Y-104186785D02*
X91837142Y-104115357D01*
X91837142Y-104115357D02*
X91694285Y-104043928D01*
X91694285Y-104043928D02*
X91337142Y-104043928D01*
X91337142Y-104043928D02*
X91122856Y-104115357D01*
X90622857Y-104043928D02*
X90265714Y-105543928D01*
X90265714Y-105543928D02*
X89980000Y-104472500D01*
X89980000Y-104472500D02*
X89694285Y-105543928D01*
X89694285Y-105543928D02*
X89337143Y-104043928D01*
X87979999Y-105543928D02*
X88837142Y-105543928D01*
X88408571Y-105543928D02*
X88408571Y-104043928D01*
X88408571Y-104043928D02*
X88551428Y-104258214D01*
X88551428Y-104258214D02*
X88694285Y-104401071D01*
X88694285Y-104401071D02*
X88837142Y-104472500D01*
D11*
%TO.C,BT1*%
X89399534Y-38922662D02*
X83917490Y-35430214D01*
X83917490Y-35430214D02*
X78435446Y-31937767D01*
X78435446Y-31937767D02*
X51570465Y-74107339D01*
X62534554Y-81092234D02*
X89399534Y-38922662D01*
X51570465Y-74107339D02*
X62534554Y-81092234D01*
%TO.C,BT2*%
X116725835Y-82050636D02*
X122355000Y-78800636D01*
X122355000Y-78800636D02*
X127984165Y-75550636D01*
X127984165Y-75550636D02*
X102984165Y-32249365D01*
X91725835Y-38749365D02*
X116725835Y-82050636D01*
X102984165Y-32249365D02*
X91725835Y-38749365D01*
%TO.C,flat side*%
X96223999Y-56281940D02*
X99722815Y-61278768D01*
X96223999Y-56281940D02*
X92128239Y-59149822D01*
X95216442Y-56987439D02*
X95216442Y-56987439D01*
X95216442Y-56987439D02*
X94488000Y-55947116D01*
X94488000Y-55947116D02*
X95216442Y-56987439D01*
X94488000Y-55947116D02*
X94488000Y-55947116D01*
X93135796Y-58444323D02*
X93135796Y-58444323D01*
X93135796Y-58444323D02*
X92407354Y-57404000D01*
X92407354Y-57404000D02*
X93135796Y-58444323D01*
X92407354Y-57404000D02*
X92407354Y-57404000D01*
X92701815Y-59968974D02*
X92128239Y-59149822D01*
X92128239Y-59149822D02*
X95627055Y-64146650D01*
X92128239Y-59149822D02*
X91800578Y-59379253D01*
X92374154Y-60198405D02*
X92701815Y-59968974D01*
X91800578Y-59379253D02*
X92374154Y-60198405D01*
X95627056Y-64146650D02*
G75*
G03*
X99722814Y-61278768I2047879J1433941D01*
G01*
%TO.C,SW1*%
X94470000Y-106520000D02*
X94470000Y-103520000D01*
X93470000Y-102520000D02*
X94470000Y-103520000D01*
X93470000Y-102520000D02*
X85470000Y-102520000D01*
X91720000Y-108520000D02*
X90220000Y-108520000D01*
X91720000Y-106520000D02*
X91720000Y-108520000D01*
X90220000Y-108520000D02*
X90220000Y-106520000D01*
X85470000Y-106520000D02*
X94470000Y-106520000D01*
X85470000Y-102520000D02*
X85470000Y-106520000D01*
%TO.C,flat side*%
X87501894Y-58405505D02*
X83580890Y-63078376D01*
X87501894Y-58405505D02*
X83671672Y-55191567D01*
X86559660Y-57614876D02*
X86559660Y-57614876D01*
X86559660Y-57614876D02*
X87376000Y-56642000D01*
X87376000Y-56642000D02*
X86559660Y-57614876D01*
X87376000Y-56642000D02*
X87376000Y-56642000D01*
X84613907Y-55982196D02*
X84613907Y-55982196D01*
X84613907Y-55982196D02*
X85430247Y-55009319D01*
X85430247Y-55009319D02*
X84613907Y-55982196D01*
X85430247Y-55009319D02*
X85430247Y-55009319D01*
X83028885Y-55957612D02*
X83671672Y-55191567D01*
X83671672Y-55191567D02*
X79750668Y-59864438D01*
X83671672Y-55191567D02*
X83365254Y-54934452D01*
X82722467Y-55700497D02*
X83028885Y-55957612D01*
X83365254Y-54934452D02*
X82722467Y-55700497D01*
X79750669Y-59864439D02*
G75*
G03*
X83580889Y-63078375I1915110J-1606968D01*
G01*
%TD*%
M02*
